<?xml version="1.0" encoding="UTF-8" standalone="no"?><!DOCTYPE svg PUBLIC "-//W3C//DTD SVG 1.1//EN" "http://www.w3.org/Graphics/SVG/1.1/DTD/svg11.dtd"><svg width="100%" height="100%" viewBox="0 0 300 300" version="1.1" xmlns="http://www.w3.org/2000/svg" xmlns:xlink="http://www.w3.org/1999/xlink" xml:space="preserve" xmlns:serif="http://www.serif.com/" style="fill-rule:evenodd;clip-rule:evenodd;stroke-linejoin:round;stroke-miterlimit:2;"><rect id="Artboard1" x="0" y="0" width="300" height="300" style="fill:none;"/><g id="Artboard11" serif:id="Artboard1"><path d="M289.477,65.786c5.942,9.095 10.934,28.257 -1.177,54.367c-6.028,12.995 6.29,32.47 6.049,54.391c-0.454,41.454 -7.846,41.082 -8.056,59.618c-0.211,18.535 7,30.321 6.291,39.097c-0.612,7.568 -2.025,24.151 -20.58,23.08c-13.707,-0.792 -23.721,-11.92 -47.628,-16.262c-20.556,-3.733 -44.493,16.722 -67.565,16.396c-42.136,-0.595 -41.759,-14.672 -64.191,-19.55c-32.405,-7.047 -39.986,11.032 -61.956,19.916c-18.66,7.545 -35.173,-20.385 -22.58,-30.08c44.046,-33.912 -13.953,-56.301 -1.01,-107.67c7.438,-29.522 13.289,-34.82 13.213,-53.612c-0.093,-22.965 -18.426,-29.662 -14.18,-73.896c0.896,-9.331 8.382,-30.275 40.114,-20.033c10.961,3.538 14.63,-12.112 41.911,-8.98c37.15,4.264 23.837,13.469 55.564,12.026c18.578,-0.845 35.088,-14.796 60.473,-12.755c17.337,1.393 18.613,13.194 51.835,6.5c12.734,-2.566 24.027,-5.822 32.29,7.024c3.658,5.685 3.758,14.675 -0.21,20.056c-7.303,9.904 -11.406,10.777 1.393,30.367Z" style="fill:#f6f6f6;"/></g></svg>